<svg width="313" height="256" viewBox="0 0 313 256" fill="none" xmlns="http://www.w3.org/2000/svg">
<g clip-path="url(#clip0)">
<path d="M66.6249 176.429C52.3455 134.623 68.2082 87.0135 107.31 62.8196C152.708 34.7268 212.238 48.8251 240.271 94.3072C255.771 119.45 258.405 148.914 249.986 174.991" fill="#FEEADE"/>
<path d="M226.872 175.673C226.872 176.088 226.206 176.429 225.393 176.429H54.8019C53.988 176.429 53.3221 176.088 53.3221 175.673C53.3221 175.257 53.988 174.917 54.8019 174.917H225.393C226.206 174.917 226.872 175.257 226.872 175.673Z" fill="#F9AC80"/>
<path d="M51.0803 175.673C51.0803 176.088 50.4144 176.429 49.6006 176.429H47.1516C46.3378 176.429 45.6719 176.088 45.6719 175.673C45.6719 175.257 46.3378 174.917 47.1516 174.917H49.6006C50.4144 174.917 51.0803 175.257 51.0803 175.673Z" fill="#F9AC80"/>
<path d="M42.9048 176.429C43.5954 176.429 44.1552 176.09 44.1552 175.673C44.1552 175.255 43.5954 174.917 42.9048 174.917C42.2142 174.917 41.6544 175.255 41.6544 175.673C41.6544 176.09 42.2142 176.429 42.9048 176.429Z" fill="#F9AC80"/>
<path d="M266.796 176.429C267.486 176.429 268.046 176.09 268.046 175.673C268.046 175.255 267.486 174.917 266.796 174.917C266.105 174.917 265.545 175.255 265.545 175.673C265.545 176.09 266.105 176.429 266.796 176.429Z" fill="#F9AC80"/>
<path d="M276.784 175.673C276.784 176.088 276.118 176.429 275.304 176.429H272.47C271.656 176.429 270.99 176.088 270.99 175.673C270.99 175.257 271.656 174.917 272.47 174.917H275.304C276.118 174.917 276.784 175.257 276.784 175.673Z" fill="#F9AC80"/>
<path d="M263.821 175.673C263.821 176.088 263.155 176.429 262.341 176.429H256.489C255.675 176.429 255.009 176.088 255.009 175.673C255.009 175.257 255.675 174.917 256.489 174.917H262.341C263.155 174.917 263.821 175.257 263.821 175.673Z" fill="#F9AC80"/>
<path d="M218.645 180.646C218.645 183.908 215.981 186.576 212.726 186.576H95.5758C92.3204 186.576 89.6569 183.908 89.6569 180.646V119.591C89.6569 116.329 92.3204 113.661 95.5758 113.661H212.726C215.981 113.661 218.645 116.329 218.645 119.591V180.646Z" fill="white"/>
<path d="M218.645 180.646C218.645 183.908 215.981 186.576 212.726 186.576H95.5758C92.3204 186.576 89.6569 183.908 89.6569 180.646V119.591C89.6569 116.329 92.3204 113.661 95.5758 113.661H212.726C215.981 113.661 218.645 116.329 218.645 119.591V180.646Z" stroke="#F9AC80" stroke-width="2" stroke-miterlimit="10"/>
<path d="M228.419 191.12C228.419 192.751 227.087 194.085 225.459 194.085H82.8501C81.2224 194.085 79.8906 192.751 79.8906 191.12V190.119C79.8906 188.489 81.2224 187.154 82.8501 187.154H225.459C227.087 187.154 228.419 188.489 228.419 190.119V191.12Z" fill="#FDE0D3"/>
<path d="M228.419 191.12C228.419 192.751 227.087 194.085 225.459 194.085H82.8501C81.2224 194.085 79.8906 192.751 79.8906 191.12V190.119C79.8906 188.489 81.2224 187.154 82.8501 187.154H225.459C227.087 187.154 228.419 188.489 228.419 190.119V191.12Z" stroke="#F9AC80" stroke-width="2" stroke-miterlimit="10"/>
<path d="M211.372 123.208C212.09 122.83 212.674 123.186 212.659 124.001L211.86 181.232C211.846 182.047 211.172 182.722 210.358 182.729L97.2627 183.745C96.4488 183.752 96.3748 183.448 97.0925 183.07L211.372 123.208Z" fill="#F0F3FA"/>
<path d="M169.969 117.649C169.969 118.464 169.303 119.131 168.49 119.131H147.714C146.9 119.131 146.234 118.464 146.234 117.649V93.0025C146.234 92.1871 146.9 91.52 147.714 91.52H168.49C169.303 91.52 169.969 92.1871 169.969 93.0025V117.649Z" fill="white"/>
<path d="M169.969 117.649C169.969 118.464 169.303 119.131 168.49 119.131H147.714C146.9 119.131 146.234 118.464 146.234 117.649V93.0025C146.234 92.1871 146.9 91.52 147.714 91.52H168.49C169.303 91.52 169.969 92.1871 169.969 93.0025V117.649V117.649Z" stroke="#FBB156" stroke-width="2" stroke-miterlimit="10"/>
<path d="M139.257 92.8913C138.444 92.8913 138.214 92.3873 138.747 91.7721L157.133 70.5505C157.665 69.9353 158.538 69.9353 159.071 70.5505L177.457 91.7721C177.989 92.3873 177.76 92.8913 176.946 92.8913H139.257Z" fill="white"/>
<path d="M139.257 92.8913C138.444 92.8913 138.214 92.3873 138.747 91.7721L157.133 70.5505C157.665 69.9353 158.538 69.9353 159.071 70.5505L177.457 91.7721C177.989 92.3873 177.76 92.8913 176.946 92.8913H139.257Z" stroke="#FBB156" stroke-width="2" stroke-miterlimit="10"/>
<path d="M168.823 87.3171H147.344V100.385H168.823V87.3171Z" fill="white" stroke="white" stroke-miterlimit="10"/>
<path d="M253.078 178.586C252.997 179.393 252.264 180.061 251.451 180.061H230.157C229.343 180.061 228.626 179.393 228.567 178.586L226.643 152.435C226.584 151.619 227.198 150.96 228.012 150.96H254.358C255.172 150.96 255.771 151.627 255.69 152.435L253.078 178.586Z" fill="#FFE5CA"/>
<path d="M253.078 178.586C252.997 179.393 252.264 180.061 251.451 180.061H230.157C229.343 180.061 228.626 179.393 228.567 178.586L226.643 152.435C226.584 151.619 227.198 150.96 228.012 150.96H254.358C255.172 150.96 255.771 151.627 255.69 152.435L253.078 178.586Z" stroke="#E0A380" stroke-width="2" stroke-miterlimit="10"/>
<path d="M242.113 140.197H240.271V150.278H242.113V140.197Z" fill="#C69E8B"/>
<path d="M234.633 149.863C240.403 149.863 245.08 145.177 245.08 139.397C245.08 133.616 240.403 128.93 234.633 128.93C228.864 128.93 224.187 133.616 224.187 139.397C224.187 145.177 228.864 149.863 234.633 149.863Z" fill="#E4EDB1"/>
<path d="M248.365 150.256C253.792 150.256 258.191 145.848 258.191 140.412C258.191 134.975 253.792 130.568 248.365 130.568C242.939 130.568 238.54 134.975 238.54 140.412C238.54 145.848 242.939 150.256 248.365 150.256Z" fill="#E0E5A8"/>
<path d="M232.429 137.158C236.658 137.158 240.086 133.723 240.086 129.486C240.086 125.249 236.658 121.814 232.429 121.814C228.199 121.814 224.771 125.249 224.771 129.486C224.771 133.723 228.199 137.158 232.429 137.158Z" fill="#DEEAAF"/>
<path d="M240.153 131.584C245.534 131.584 249.897 127.213 249.897 121.822C249.897 116.43 245.534 112.06 240.153 112.06C234.771 112.06 230.409 116.43 230.409 121.822C230.409 127.213 234.771 131.584 240.153 131.584Z" fill="#D6E8B6"/>
<path d="M245.398 159.528C245.805 159.528 246.138 159.862 246.138 160.27V160.633C246.138 161.04 245.805 161.374 245.398 161.374H231.918C231.511 161.374 231.178 161.04 231.178 160.633V160.27C231.178 159.862 231.511 159.528 231.918 159.528H245.398Z" fill="#E0A380"/>
<path d="M250.777 159.528C251.184 159.528 251.517 159.862 251.517 160.27V160.633C251.517 161.04 251.184 161.374 250.777 161.374H248.898C248.491 161.374 248.158 161.04 248.158 160.633V160.27C248.158 159.862 248.491 159.528 248.898 159.528H250.777Z" fill="#E0A380"/>
<path d="M248.846 137.21C253.688 137.21 257.614 133.277 257.614 128.426C257.614 123.575 253.688 119.643 248.846 119.643C244.004 119.643 240.079 123.575 240.079 128.426C240.079 133.277 244.004 137.21 248.846 137.21Z" fill="#D6E8B6"/>
<path d="M237.371 142.406C240.215 142.406 242.52 140.096 242.52 137.247C242.52 134.398 240.215 132.088 237.371 132.088C234.527 132.088 232.221 134.398 232.221 137.247C232.221 140.096 234.527 142.406 237.371 142.406Z" fill="#D6E8B6"/>
<path d="M192.698 165.399C187.356 165.258 182.014 165.117 176.672 164.977C177.25 164.532 178.537 163.398 179.099 161.493C180.157 157.905 177.649 154.903 177.442 154.666C182.525 154.666 187.615 154.666 192.698 154.666C192.306 156.489 191.988 158.869 192.165 161.641C192.254 163.035 192.454 164.295 192.698 165.399Z" fill="#A0626B"/>
<path d="M185.965 157.453C193.954 157.453 200.43 150.965 200.43 142.962C200.43 134.959 193.954 128.471 185.965 128.471C177.977 128.471 171.501 134.959 171.501 142.962C171.501 150.965 177.977 157.453 185.965 157.453Z" fill="#A0626B"/>
<path d="M173.661 141.961C174.682 144.57 175.703 147.187 176.724 149.796C177.982 153.006 179.417 156.445 182.355 158.239C185.987 160.455 190.833 159.373 194.348 156.979C202.901 151.145 205.106 139.471 199.283 130.909C196.212 126.395 191.337 123.445 185.913 122.83L185.765 125.454L182.554 122.756C181.689 124.246 179.773 124.757 178.285 123.883C178.071 123.757 177.878 123.608 177.701 123.445C178.544 125.195 177.568 127.337 176.162 128.678C174.431 130.331 169.488 132.31 169.696 135.26C169.836 137.217 172.862 139.923 173.661 141.961Z" fill="#302E41"/>
<path d="M193.083 165.621C189.361 164.85 183.538 163.694 176.221 164.813C168.386 166.007 162.904 169.164 160.055 171.121C159.7 172.737 159.308 175.005 159.152 177.741C158.953 181.35 159.286 183.974 159.84 188.199C160.381 192.306 160.699 194.767 161.764 198.102C162.689 201 163.791 203.35 164.657 205.011C185.314 205.1 200.341 205.122 202.235 205.114C202.708 205.114 203.788 205.1 204.639 204.514C205.246 204.099 205.498 203.55 205.609 203.217C206.674 200.963 207.725 198.317 208.561 195.315C209.5 191.95 209.966 188.881 210.174 186.25C210.529 181.714 209.818 178.289 209.626 177.303C209.138 174.761 208.435 172.648 207.821 171.077C204.824 169.402 199.838 167.022 193.083 165.621Z" fill="#63617A"/>
</g>
<defs>
<clipPath id="clip0">
<rect width="313" height="256" fill="white"/>
</clipPath>
</defs>
</svg>
