<?xml version="1.0" encoding="UTF-8"?>
<svg width="318px" height="99px" viewBox="0 0 318 99" version="1.1" xmlns="http://www.w3.org/2000/svg" xmlns:xlink="http://www.w3.org/1999/xlink">
    <!-- Generator: Sketch 50.2 (55047) - http://www.bohemiancoding.com/sketch -->
    <title>login-logo</title>
    <desc>Created with Sketch.</desc>
    <defs></defs>
    <g id="Page-1" stroke="none" stroke-width="1" fill="none" fill-rule="evenodd">
        <g id="Login-Logo" transform="translate(-681.000000, -154.000000)" fill="#FFFFFF">
            <path d="M717.142105,249.323684 C715.152622,250.281584 712.969749,251.027629 710.593421,251.561842 C708.217093,252.096055 705.481594,252.363158 702.386842,252.363158 C699.218405,252.363158 696.326329,251.856584 693.710526,250.843421 C691.094724,249.830258 688.847378,248.411851 686.968421,246.588158 C685.089464,244.764465 683.625005,242.590802 682.575,240.067105 C681.524995,237.543408 681,234.752647 681,231.694737 C681,228.563142 681.543416,225.735539 682.630263,223.211842 C683.717111,220.688145 685.209201,218.542114 687.106579,216.773684 C689.003957,215.005254 691.242092,213.64211 693.821053,212.684211 C696.400013,211.726311 699.199985,211.247368 702.221053,211.247368 C705.352647,211.247368 708.217092,211.69868 710.814474,212.601316 C713.411855,213.503952 715.502624,214.692098 717.086842,216.165789 L712.278947,221.360526 C711.284206,220.255258 709.89343,219.315793 708.106579,218.542105 C706.319728,217.768417 704.376326,217.381579 702.276316,217.381579 C700.213148,217.381579 698.343429,217.749996 696.667105,218.486842 C694.990781,219.223688 693.563164,220.236836 692.384211,221.526316 C691.205257,222.815796 690.293424,224.326307 689.648684,226.057895 C689.003944,227.789482 688.681579,229.668411 688.681579,231.694737 C688.681579,233.794747 689.003944,235.719728 689.648684,237.469737 C690.293424,239.219746 691.214468,240.739467 692.411842,242.028947 C693.609217,243.318427 695.064465,244.322365 696.777632,245.040789 C698.490798,245.759214 700.4342,246.118421 702.607895,246.118421 C705.59212,246.118421 708.189463,245.657899 710.4,244.736842 L710.4,234.789474 L702.165789,234.789474 L702.165789,229.042105 L717.142105,229.042105 L717.142105,249.323684 Z M723.718421,237.994737 C723.718421,235.894726 724.096049,233.988166 724.851316,232.275 C725.606583,230.561834 726.628941,229.097375 727.918421,227.881579 C729.207901,226.665783 730.736833,225.726319 732.505263,225.063158 C734.273693,224.399997 736.152622,224.068421 738.142105,224.068421 C740.131589,224.068421 742.010517,224.399997 743.778947,225.063158 C745.547377,225.726319 747.076309,226.665783 748.365789,227.881579 C749.65527,229.097375 750.677628,230.561834 751.432895,232.275 C752.188162,233.988166 752.565789,235.894726 752.565789,237.994737 C752.565789,240.094747 752.188162,242.010518 751.432895,243.742105 C750.677628,245.473693 749.65527,246.956573 748.365789,248.190789 C747.076309,249.425006 745.547377,250.392102 743.778947,251.092105 C742.010517,251.792109 740.131589,252.142105 738.142105,252.142105 C736.152622,252.142105 734.273693,251.792109 732.505263,251.092105 C730.736833,250.392102 729.207901,249.425006 727.918421,248.190789 C726.628941,246.956573 725.606583,245.473693 724.851316,243.742105 C724.096049,242.010518 723.718421,240.094747 723.718421,237.994737 Z M730.460526,237.994737 C730.460526,239.026321 730.617104,240.05789 730.930263,241.089474 C731.243423,242.121058 731.713155,243.042101 732.339474,243.852632 C732.965793,244.663162 733.75789,245.326313 734.715789,245.842105 C735.673689,246.357897 736.815783,246.615789 738.142105,246.615789 C739.468428,246.615789 740.610522,246.357897 741.568421,245.842105 C742.526321,245.326313 743.318418,244.663162 743.944737,243.852632 C744.571056,243.042101 745.040788,242.121058 745.353947,241.089474 C745.667107,240.05789 745.823684,239.026321 745.823684,237.994737 C745.823684,236.963153 745.667107,235.940795 745.353947,234.927632 C745.040788,233.914469 744.571056,233.002636 743.944737,232.192105 C743.318418,231.381575 742.526321,230.727634 741.568421,230.230263 C740.610522,229.732892 739.468428,229.484211 738.142105,229.484211 C736.815783,229.484211 735.673689,229.732892 734.715789,230.230263 C733.75789,230.727634 732.965793,231.381575 732.339474,232.192105 C731.713155,233.002636 731.243423,233.914469 730.930263,234.927632 C730.617104,235.940795 730.460526,236.963153 730.460526,237.994737 Z M754.997368,224.842105 L762.236842,224.842105 L769.2,244.184211 L769.310526,244.184211 L776.328947,224.842105 L783.347368,224.842105 L772.792105,251.368421 L765.718421,251.368421 L754.997368,224.842105 Z M806.005263,235.452632 C806.005263,234.605259 805.885528,233.794741 805.646053,233.021053 C805.406578,232.247365 805.02895,231.565792 804.513158,230.976316 C803.997366,230.386839 803.343425,229.917107 802.551316,229.567105 C801.759207,229.217104 800.828953,229.042105 799.760526,229.042105 C797.771043,229.042105 796.085533,229.640783 794.703947,230.838158 C793.322362,232.035532 792.557895,233.573675 792.410526,235.452632 L806.005263,235.452632 Z M812.636842,238.436842 L812.636842,239.321053 C812.636842,239.615791 812.618421,239.910525 812.581579,240.205263 L792.410526,240.205263 C792.484211,241.163163 792.732893,242.038154 793.156579,242.830263 C793.580265,243.622372 794.142102,244.303945 794.842105,244.875 C795.542109,245.446055 796.334206,245.897367 797.218421,246.228947 C798.102636,246.560528 799.023679,246.726316 799.981579,246.726316 C801.639482,246.726316 803.039468,246.422371 804.181579,245.814474 C805.32369,245.206576 806.263154,244.368426 807,243.3 L811.421053,246.836842 C808.80525,250.373702 805.010551,252.142105 800.036842,252.142105 C797.973674,252.142105 796.076324,251.81974 794.344737,251.175 C792.613149,250.53026 791.111848,249.618427 789.840789,248.439474 C788.56973,247.26052 787.575004,245.814482 786.856579,244.101316 C786.138154,242.388149 785.778947,240.444748 785.778947,238.271053 C785.778947,236.1342 786.138154,234.190798 786.856579,232.440789 C787.575004,230.690781 788.56052,229.19869 789.813158,227.964474 C791.065796,226.730257 792.548676,225.772372 794.261842,225.090789 C795.975009,224.409207 797.826306,224.068421 799.815789,224.068421 C801.657904,224.068421 803.361834,224.372365 804.927632,224.980263 C806.493429,225.588161 807.847363,226.490783 808.989474,227.688158 C810.131585,228.885532 811.024997,230.377623 811.669737,232.164474 C812.314477,233.951325 812.636842,236.042093 812.636842,238.436842 Z M819.047368,224.842105 L825.402632,224.842105 L825.402632,229.263158 L825.513158,229.263158 C826.250004,227.715782 827.281572,226.463163 828.607895,225.505263 C829.934217,224.547364 831.48157,224.068421 833.25,224.068421 C833.507896,224.068421 833.784209,224.077631 834.078947,224.096053 C834.373686,224.114474 834.631578,224.160526 834.852632,224.234211 L834.852632,230.313158 C834.410524,230.202631 834.032896,230.128948 833.719737,230.092105 C833.406577,230.055263 833.102633,230.036842 832.807895,230.036842 C831.297361,230.036842 830.081584,230.313155 829.160526,230.865789 C828.239469,231.418424 827.521055,232.081575 827.005263,232.855263 C826.489471,233.628951 826.139475,234.421049 825.955263,235.231579 C825.771052,236.042109 825.678947,236.68684 825.678947,237.165789 L825.678947,251.368421 L819.047368,251.368421 L819.047368,224.842105 Z M839.163158,224.842105 L845.463158,224.842105 L845.463158,229.097368 L845.573684,229.097368 C846.163161,227.771046 847.185519,226.601321 848.640789,225.588158 C850.09606,224.574995 851.818411,224.068421 853.807895,224.068421 C855.539482,224.068421 857.022362,224.372365 858.256579,224.980263 C859.490796,225.588161 860.503943,226.389469 861.296053,227.384211 C862.088162,228.378952 862.668419,229.521046 863.036842,230.810526 C863.405265,232.100006 863.589474,233.426309 863.589474,234.789474 L863.589474,251.368421 L856.957895,251.368421 L856.957895,236.668421 C856.957895,235.894733 856.902632,235.084215 856.792105,234.236842 C856.681578,233.389469 856.442107,232.625003 856.073684,231.943421 C855.705261,231.261839 855.198687,230.700002 854.553947,230.257895 C853.909207,229.815787 853.052637,229.594737 851.984211,229.594737 C850.915784,229.594737 849.994741,229.806577 849.221053,230.230263 C848.447365,230.653949 847.811845,231.197365 847.314474,231.860526 C846.817103,232.523688 846.439475,233.288154 846.181579,234.153947 C845.923683,235.019741 845.794737,235.894732 845.794737,236.778947 L845.794737,251.368421 L839.163158,251.368421 L839.163158,224.842105 Z M902.992105,224.068421 C904.723693,224.068421 906.206573,224.372365 907.440789,224.980263 C908.675006,225.588161 909.688154,226.389469 910.480263,227.384211 C911.272372,228.378952 911.85263,229.521046 912.221053,230.810526 C912.589476,232.100006 912.773684,233.426309 912.773684,234.789474 L912.773684,251.368421 L906.142105,251.368421 L906.142105,236.668421 C906.142105,235.894733 906.086843,235.084215 905.976316,234.236842 C905.865789,233.389469 905.626318,232.625003 905.257895,231.943421 C904.889472,231.261839 904.382898,230.700002 903.738158,230.257895 C903.093418,229.815787 902.236847,229.594737 901.168421,229.594737 C900.136837,229.594737 899.252635,229.815787 898.515789,230.257895 C897.778944,230.700002 897.171055,231.271049 896.692105,231.971053 C896.213156,232.671056 895.863159,233.453943 895.642105,234.319737 C895.421052,235.185531 895.310526,236.042101 895.310526,236.889474 L895.310526,251.368421 L888.678947,251.368421 L888.678947,235.342105 C888.678947,233.684202 888.282899,232.311848 887.490789,231.225 C886.69868,230.138152 885.455272,229.594737 883.760526,229.594737 C882.765785,229.594737 881.900004,229.806577 881.163158,230.230263 C880.426312,230.653949 879.827634,231.197365 879.367105,231.860526 C878.906577,232.523688 878.55658,233.288154 878.317105,234.153947 C878.07763,235.019741 877.957895,235.894732 877.957895,236.778947 L877.957895,251.368421 L871.326316,251.368421 L871.326316,224.842105 L877.626316,224.842105 L877.626316,229.097368 L877.736842,229.097368 C878.03158,228.434207 878.427629,227.807898 878.925,227.218421 C879.422371,226.628944 880.011839,226.094739 880.693421,225.615789 C881.375003,225.13684 882.15789,224.759212 883.042105,224.482895 C883.92632,224.206578 884.902626,224.068421 885.971053,224.068421 C888.034221,224.068421 889.747362,224.528943 891.110526,225.45 C892.473691,226.371057 893.523681,227.586835 894.260526,229.097368 C895.144741,227.476308 896.323677,226.232899 897.797368,225.367105 C899.27106,224.501311 901.002622,224.068421 902.992105,224.068421 Z M939.189474,235.452632 C939.189474,234.605259 939.069738,233.794741 938.830263,233.021053 C938.590788,232.247365 938.21316,231.565792 937.697368,230.976316 C937.181576,230.386839 936.527636,229.917107 935.735526,229.567105 C934.943417,229.217104 934.013163,229.042105 932.944737,229.042105 C930.955253,229.042105 929.269744,229.640783 927.888158,230.838158 C926.506572,232.035532 925.742106,233.573675 925.594737,235.452632 L939.189474,235.452632 Z M945.821053,238.436842 L945.821053,239.321053 C945.821053,239.615791 945.802632,239.910525 945.765789,240.205263 L925.594737,240.205263 C925.668421,241.163163 925.917103,242.038154 926.340789,242.830263 C926.764476,243.622372 927.326312,244.303945 928.026316,244.875 C928.726319,245.446055 929.518417,245.897367 930.402632,246.228947 C931.286847,246.560528 932.20789,246.726316 933.165789,246.726316 C934.823692,246.726316 936.223679,246.422371 937.365789,245.814474 C938.5079,245.206576 939.447365,244.368426 940.184211,243.3 L944.605263,246.836842 C941.989461,250.373702 938.194762,252.142105 933.221053,252.142105 C931.157884,252.142105 929.260535,251.81974 927.528947,251.175 C925.79736,250.53026 924.296059,249.618427 923.025,248.439474 C921.753941,247.26052 920.759214,245.814482 920.040789,244.101316 C919.322365,242.388149 918.963158,240.444748 918.963158,238.271053 C918.963158,236.1342 919.322365,234.190798 920.040789,232.440789 C920.759214,230.690781 921.744731,229.19869 922.997368,227.964474 C924.250006,226.730257 925.732886,225.772372 927.446053,225.090789 C929.159219,224.409207 931.010516,224.068421 933,224.068421 C934.842114,224.068421 936.546045,224.372365 938.111842,224.980263 C939.677639,225.588161 941.031573,226.490783 942.173684,227.688158 C943.315795,228.885532 944.209207,230.377623 944.853947,232.164474 C945.498687,233.951325 945.821053,236.042093 945.821053,238.436842 Z M952.231579,224.842105 L958.531579,224.842105 L958.531579,229.097368 L958.642105,229.097368 C959.231582,227.771046 960.25394,226.601321 961.709211,225.588158 C963.164481,224.574995 964.886832,224.068421 966.876316,224.068421 C968.607903,224.068421 970.090783,224.372365 971.325,224.980263 C972.559217,225.588161 973.572364,226.389469 974.364474,227.384211 C975.156583,228.378952 975.73684,229.521046 976.105263,230.810526 C976.473686,232.100006 976.657895,233.426309 976.657895,234.789474 L976.657895,251.368421 L970.026316,251.368421 L970.026316,236.668421 C970.026316,235.894733 969.971053,235.084215 969.860526,234.236842 C969.749999,233.389469 969.510528,232.625003 969.142105,231.943421 C968.773682,231.261839 968.267108,230.700002 967.622368,230.257895 C966.977628,229.815787 966.121058,229.594737 965.052632,229.594737 C963.984205,229.594737 963.063162,229.806577 962.289474,230.230263 C961.515786,230.653949 960.880266,231.197365 960.382895,231.860526 C959.885524,232.523688 959.507896,233.288154 959.25,234.153947 C958.992104,235.019741 958.863158,235.894732 958.863158,236.778947 L958.863158,251.368421 L952.231579,251.368421 L952.231579,224.842105 Z M980.581579,230.147368 L980.581579,224.842105 L985.223684,224.842105 L985.223684,217.160526 L991.744737,217.160526 L991.744737,224.842105 L998.376316,224.842105 L998.376316,230.147368 L991.744737,230.147368 L991.744737,242.471053 C991.744737,243.650006 991.956577,244.626312 992.380263,245.4 C992.803949,246.173688 993.752624,246.560526 995.226316,246.560526 C995.668423,246.560526 996.147366,246.514474 996.663158,246.422368 C997.17895,246.330263 997.639472,246.192106 998.044737,246.007895 L998.265789,251.202632 C997.676313,251.423685 996.97632,251.598684 996.165789,251.727632 C995.355259,251.85658 994.581583,251.921053 993.844737,251.921053 C992.076307,251.921053 990.639479,251.672371 989.534211,251.175 C988.428942,250.677629 987.553951,249.996057 986.909211,249.130263 C986.26447,248.264469 985.82237,247.269742 985.582895,246.146053 C985.34342,245.022363 985.223684,243.815796 985.223684,242.526316 L985.223684,230.147368 L980.581579,230.147368 Z M682.678947,156.978947 L697.931579,156.978947 C699.405271,156.978947 700.860519,157.153946 702.297368,157.503947 C703.734218,157.853949 705.014468,158.424996 706.138158,159.217105 C707.261848,160.009214 708.173681,161.031573 708.873684,162.284211 C709.573688,163.536848 709.923684,165.04736 709.923684,166.815789 C709.923684,169.026327 709.297375,170.849993 708.044737,172.286842 C706.792099,173.723691 705.152642,174.75526 703.126316,175.381579 L703.126316,175.492105 C705.594749,175.823686 707.621045,176.781571 709.205263,178.365789 C710.789482,179.950008 711.581579,182.068408 711.581579,184.721053 C711.581579,186.857905 711.157899,188.65394 710.310526,190.109211 C709.463154,191.564481 708.348691,192.734206 706.967105,193.618421 C705.585519,194.502636 704.001325,195.138156 702.214474,195.525 C700.427623,195.911844 698.613167,196.105263 696.771053,196.105263 L682.678947,196.105263 L682.678947,156.978947 Z M689.642105,172.894737 L695.831579,172.894737 C698.152643,172.894737 699.921047,172.434215 701.136842,171.513158 C702.352638,170.592101 702.960526,169.284219 702.960526,167.589474 C702.960526,165.821044 702.334217,164.568425 701.081579,163.831579 C699.828941,163.094733 697.876329,162.726316 695.223684,162.726316 L689.642105,162.726316 L689.642105,172.894737 Z M689.642105,190.247368 L695.886842,190.247368 C696.771057,190.247368 697.728942,190.182895 698.760526,190.053947 C699.79211,189.924999 700.740785,189.657897 701.606579,189.252632 C702.472373,188.847366 703.190787,188.257899 703.761842,187.484211 C704.332898,186.710522 704.618421,185.678954 704.618421,184.389474 C704.618421,182.326305 703.918428,180.889478 702.518421,180.078947 C701.118414,179.268417 699.000014,178.863158 696.163158,178.863158 L689.642105,178.863158 L689.642105,190.247368 Z M718.213158,154.326316 L724.844737,154.326316 L724.844737,196.105263 L718.213158,196.105263 L718.213158,154.326316 Z M731.365789,182.731579 C731.365789,180.631568 731.743417,178.725009 732.498684,177.011842 C733.253951,175.298676 734.276309,173.834217 735.565789,172.618421 C736.85527,171.402625 738.384202,170.463161 740.152632,169.8 C741.921061,169.136839 743.79999,168.805263 745.789474,168.805263 C747.778957,168.805263 749.657886,169.136839 751.426316,169.8 C753.194746,170.463161 754.723678,171.402625 756.013158,172.618421 C757.302638,173.834217 758.324996,175.298676 759.080263,177.011842 C759.83553,178.725009 760.213158,180.631568 760.213158,182.731579 C760.213158,184.831589 759.83553,186.74736 759.080263,188.478947 C758.324996,190.210535 757.302638,191.693415 756.013158,192.927632 C754.723678,194.161848 753.194746,195.128944 751.426316,195.828947 C749.657886,196.528951 747.778957,196.878947 745.789474,196.878947 C743.79999,196.878947 741.921061,196.528951 740.152632,195.828947 C738.384202,195.128944 736.85527,194.161848 735.565789,192.927632 C734.276309,191.693415 733.253951,190.210535 732.498684,188.478947 C731.743417,186.74736 731.365789,184.831589 731.365789,182.731579 Z M738.107895,182.731579 C738.107895,183.763163 738.264472,184.794732 738.577632,185.826316 C738.890791,186.8579 739.360523,187.778943 739.986842,188.589474 C740.613161,189.400004 741.405258,190.063155 742.363158,190.578947 C743.321057,191.094739 744.463151,191.352632 745.789474,191.352632 C747.115796,191.352632 748.25789,191.094739 749.215789,190.578947 C750.173689,190.063155 750.965786,189.400004 751.592105,188.589474 C752.218424,187.778943 752.688156,186.8579 753.001316,185.826316 C753.314475,184.794732 753.471053,183.763163 753.471053,182.731579 C753.471053,181.699995 753.314475,180.677637 753.001316,179.664474 C752.688156,178.651311 752.218424,177.739478 751.592105,176.928947 C750.965786,176.118417 750.173689,175.464476 749.215789,174.967105 C748.25789,174.469734 747.115796,174.221053 745.789474,174.221053 C744.463151,174.221053 743.321057,174.469734 742.363158,174.967105 C741.405258,175.464476 740.613161,176.118417 739.986842,176.928947 C739.360523,177.739478 738.890791,178.651311 738.577632,179.664474 C738.264472,180.677637 738.107895,181.699995 738.107895,182.731579 Z M765.076316,182.731579 C765.076316,180.631568 765.453944,178.725009 766.209211,177.011842 C766.964477,175.298676 767.986836,173.834217 769.276316,172.618421 C770.565796,171.402625 772.094728,170.463161 773.863158,169.8 C775.631588,169.136839 777.510516,168.805263 779.5,168.805263 C781.489484,168.805263 783.368412,169.136839 785.136842,169.8 C786.905272,170.463161 788.434204,171.402625 789.723684,172.618421 C791.013164,173.834217 792.035523,175.298676 792.790789,177.011842 C793.546056,178.725009 793.923684,180.631568 793.923684,182.731579 C793.923684,184.831589 793.546056,186.74736 792.790789,188.478947 C792.035523,190.210535 791.013164,191.693415 789.723684,192.927632 C788.434204,194.161848 786.905272,195.128944 785.136842,195.828947 C783.368412,196.528951 781.489484,196.878947 779.5,196.878947 C777.510516,196.878947 775.631588,196.528951 773.863158,195.828947 C772.094728,195.128944 770.565796,194.161848 769.276316,192.927632 C767.986836,191.693415 766.964477,190.210535 766.209211,188.478947 C765.453944,186.74736 765.076316,184.831589 765.076316,182.731579 Z M771.818421,182.731579 C771.818421,183.763163 771.974998,184.794732 772.288158,185.826316 C772.601317,186.8579 773.07105,187.778943 773.697368,188.589474 C774.323687,189.400004 775.115785,190.063155 776.073684,190.578947 C777.031584,191.094739 778.173678,191.352632 779.5,191.352632 C780.826322,191.352632 781.968416,191.094739 782.926316,190.578947 C783.884215,190.063155 784.676313,189.400004 785.302632,188.589474 C785.928951,187.778943 786.398683,186.8579 786.711842,185.826316 C787.025002,184.794732 787.181579,183.763163 787.181579,182.731579 C787.181579,181.699995 787.025002,180.677637 786.711842,179.664474 C786.398683,178.651311 785.928951,177.739478 785.302632,176.928947 C784.676313,176.118417 783.884215,175.464476 782.926316,174.967105 C781.968416,174.469734 780.826322,174.221053 779.5,174.221053 C778.173678,174.221053 777.031584,174.469734 776.073684,174.967105 C775.115785,175.464476 774.323687,176.118417 773.697368,176.928947 C773.07105,177.739478 772.601317,178.651311 772.288158,179.664474 C771.974998,180.677637 771.818421,181.699995 771.818421,182.731579 Z M832,168.805263 C833.731588,168.805263 835.214468,169.109207 836.448684,169.717105 C837.682901,170.325003 838.696049,171.126311 839.488158,172.121053 C840.280267,173.115794 840.860524,174.257888 841.228947,175.547368 C841.59737,176.836849 841.781579,178.163151 841.781579,179.526316 L841.781579,196.105263 L835.15,196.105263 L835.15,181.405263 C835.15,180.631575 835.094737,179.821057 834.984211,178.973684 C834.873684,178.126312 834.634212,177.361846 834.265789,176.680263 C833.897367,175.998681 833.390793,175.436844 832.746053,174.994737 C832.101313,174.552629 831.244742,174.331579 830.176316,174.331579 C829.144732,174.331579 828.26053,174.552629 827.523684,174.994737 C826.786838,175.436844 826.17895,176.007891 825.7,176.707895 C825.22105,177.407898 824.871054,178.190785 824.65,179.056579 C824.428946,179.922373 824.318421,180.778943 824.318421,181.626316 L824.318421,196.105263 L817.686842,196.105263 L817.686842,180.078947 C817.686842,178.421044 817.290793,177.04869 816.498684,175.961842 C815.706575,174.874995 814.463166,174.331579 812.768421,174.331579 C811.773679,174.331579 810.907898,174.543419 810.171053,174.967105 C809.434207,175.390792 808.835529,175.934207 808.375,176.597368 C807.914471,177.26053 807.564475,178.024996 807.325,178.890789 C807.085525,179.756583 806.965789,180.631575 806.965789,181.515789 L806.965789,196.105263 L800.334211,196.105263 L800.334211,169.578947 L806.634211,169.578947 L806.634211,173.834211 L806.744737,173.834211 C807.039475,173.171049 807.435524,172.54474 807.932895,171.955263 C808.430266,171.365787 809.019733,170.831581 809.701316,170.352632 C810.382898,169.873682 811.165785,169.496054 812.05,169.219737 C812.934215,168.94342 813.910521,168.805263 814.978947,168.805263 C817.042116,168.805263 818.755256,169.265785 820.118421,170.186842 C821.481586,171.107899 822.531575,172.323677 823.268421,173.834211 C824.152636,172.21315 825.331572,170.969741 826.805263,170.103947 C828.278955,169.238154 830.010516,168.805263 832,168.805263 Z M856.260526,154.326316 L856.260526,172.95 L856.426316,172.95 C856.757896,172.507893 857.181576,172.047371 857.697368,171.568421 C858.21316,171.089471 858.83026,170.64737 859.548684,170.242105 C860.267109,169.83684 861.105258,169.496054 862.063158,169.219737 C863.021057,168.94342 864.107889,168.805263 865.323684,168.805263 C867.202641,168.805263 868.934203,169.16447 870.518421,169.882895 C872.10264,170.601319 873.465784,171.586836 874.607895,172.839474 C875.750006,174.092112 876.634207,175.565781 877.260526,177.260526 C877.886845,178.955272 878.2,180.778938 878.2,182.731579 C878.2,184.68422 877.896056,186.517097 877.288158,188.230263 C876.68026,189.94343 875.814479,191.43552 874.690789,192.706579 C873.5671,193.977638 872.203955,194.990786 870.601316,195.746053 C868.998676,196.50132 867.184221,196.878947 865.157895,196.878947 C863.278938,196.878947 861.519745,196.473688 859.880263,195.663158 C858.240781,194.852628 856.960531,193.673692 856.039474,192.126316 L855.928947,192.126316 L855.928947,196.105263 L849.628947,196.105263 L849.628947,154.326316 L856.260526,154.326316 Z M871.457895,182.731579 C871.457895,181.699995 871.301317,180.677637 870.988158,179.664474 C870.674998,178.651311 870.205266,177.739478 869.578947,176.928947 C868.952628,176.118417 868.160531,175.464476 867.202632,174.967105 C866.244732,174.469734 865.121059,174.221053 863.831579,174.221053 C862.615783,174.221053 861.528952,174.478945 860.571053,174.994737 C859.613153,175.510529 858.793424,176.17368 858.111842,176.984211 C857.43026,177.794741 856.914475,178.715784 856.564474,179.747368 C856.214472,180.778953 856.039474,181.810521 856.039474,182.842105 C856.039474,183.873689 856.214472,184.896048 856.564474,185.909211 C856.914475,186.922373 857.43026,187.834206 858.111842,188.644737 C858.793424,189.455267 859.613153,190.109208 860.571053,190.606579 C861.528952,191.10395 862.615783,191.352632 863.831579,191.352632 C865.121059,191.352632 866.244732,191.094739 867.202632,190.578947 C868.160531,190.063155 868.952628,189.400004 869.578947,188.589474 C870.205266,187.778943 870.674998,186.8579 870.988158,185.826316 C871.301317,184.794732 871.457895,183.763163 871.457895,182.731579 Z M903.289474,180.189474 C903.289474,179.342101 903.169738,178.531583 902.930263,177.757895 C902.690788,176.984207 902.31316,176.302635 901.797368,175.713158 C901.281576,175.123681 900.627636,174.653949 899.835526,174.303947 C899.043417,173.953946 898.113163,173.778947 897.044737,173.778947 C895.055253,173.778947 893.369744,174.377626 891.988158,175.575 C890.606572,176.772374 889.842106,178.310517 889.694737,180.189474 L903.289474,180.189474 Z M909.921053,183.173684 L909.921053,184.057895 C909.921053,184.352633 909.902632,184.647367 909.865789,184.942105 L889.694737,184.942105 C889.768421,185.900005 890.017103,186.774996 890.440789,187.567105 C890.864476,188.359214 891.426312,189.040787 892.126316,189.611842 C892.826319,190.182898 893.618417,190.634209 894.502632,190.965789 C895.386847,191.29737 896.30789,191.463158 897.265789,191.463158 C898.923693,191.463158 900.323679,191.159214 901.465789,190.551316 C902.6079,189.943418 903.547365,189.105269 904.284211,188.036842 L908.705263,191.573684 C906.089461,195.110544 902.294762,196.878947 897.321053,196.878947 C895.257884,196.878947 893.360535,196.556582 891.628947,195.911842 C889.89736,195.267102 888.396059,194.355269 887.125,193.176316 C885.853941,191.997363 884.859214,190.551324 884.140789,188.838158 C883.422365,187.124991 883.063158,185.18159 883.063158,183.007895 C883.063158,180.871042 883.422365,178.92764 884.140789,177.177632 C884.859214,175.427623 885.844731,173.935532 887.097368,172.701316 C888.350006,171.467099 889.832886,170.509214 891.546053,169.827632 C893.259219,169.146049 895.110516,168.805263 897.1,168.805263 C898.942114,168.805263 900.646045,169.109207 902.211842,169.717105 C903.777639,170.325003 905.131573,171.227626 906.273684,172.425 C907.415795,173.622374 908.309207,175.114465 908.953947,176.901316 C909.598687,178.688167 909.921053,180.778935 909.921053,183.173684 Z M916.331579,169.578947 L922.686842,169.578947 L922.686842,174 L922.797368,174 C923.534214,172.452624 924.565783,171.200005 925.892105,170.242105 C927.218428,169.284206 928.765781,168.805263 930.534211,168.805263 C930.792107,168.805263 931.06842,168.814474 931.363158,168.832895 C931.657896,168.851316 931.915788,168.897368 932.136842,168.971053 L932.136842,175.05 C931.694735,174.939473 931.317107,174.86579 931.003947,174.828947 C930.690788,174.792105 930.386844,174.773684 930.092105,174.773684 C928.581571,174.773684 927.365794,175.049997 926.444737,175.602632 C925.52368,176.155266 924.805266,176.818417 924.289474,177.592105 C923.773682,178.365793 923.423685,179.157891 923.239474,179.968421 C923.055262,180.778951 922.963158,181.423682 922.963158,181.902632 L922.963158,196.105263 L916.331579,196.105263 L916.331579,169.578947 Z M962.421053,169.578947 L962.421053,193.728947 C962.421053,196.123696 962.126319,198.288148 961.536842,200.222368 C960.947365,202.156589 960.035532,203.796046 958.801316,205.140789 C957.567099,206.485533 956.010536,207.526312 954.131579,208.263158 C952.252622,209.000004 950.023697,209.368421 947.444737,209.368421 C946.37631,209.368421 945.243427,209.276317 944.046053,209.092105 C942.848678,208.907894 941.669743,208.631581 940.509211,208.263158 C939.348678,207.894735 938.234216,207.434213 937.165789,206.881579 C936.097363,206.328945 935.139478,205.702635 934.292105,205.002632 L938.105263,199.863158 C939.394743,201.078953 940.849992,202.009207 942.471053,202.653947 C944.092113,203.298687 945.731571,203.621053 947.389474,203.621053 C948.973692,203.621053 950.309205,203.390792 951.396053,202.930263 C952.4829,202.469735 953.348681,201.834215 953.993421,201.023684 C954.638161,200.213154 955.098683,199.255269 955.375,198.15 C955.651317,197.044731 955.789474,195.828954 955.789474,194.502632 L955.789474,192.568421 L955.678947,192.568421 C954.721048,193.857901 953.49606,194.843418 952.003947,195.525 C950.511835,196.206582 948.844746,196.547368 947.002632,196.547368 C945.013148,196.547368 943.207903,196.178951 941.586842,195.442105 C939.965781,194.705259 938.593427,193.710533 937.469737,192.457895 C936.346047,191.205257 935.471056,189.740798 934.844737,188.064474 C934.218418,186.38815 933.905263,184.610536 933.905263,182.731579 C933.905263,180.81578 934.209207,179.010535 934.817105,177.315789 C935.425003,175.621044 936.290784,174.147375 937.414474,172.894737 C938.538164,171.642099 939.901308,170.647372 941.503947,169.910526 C943.106587,169.173681 944.902622,168.805263 946.892105,168.805263 C948.771062,168.805263 950.521045,169.192101 952.142105,169.965789 C953.763166,170.739478 955.052627,171.936834 956.010526,173.557895 L956.121053,173.557895 L956.121053,169.578947 L962.421053,169.578947 Z M948.273684,174.221053 C947.057889,174.221053 945.980268,174.442103 945.040789,174.884211 C944.101311,175.326318 943.309214,175.924996 942.664474,176.680263 C942.019734,177.43553 941.52237,178.328942 941.172368,179.360526 C940.822367,180.39211 940.647368,181.497363 940.647368,182.676316 C940.647368,183.744742 940.822367,184.776311 941.172368,185.771053 C941.52237,186.765794 942.019734,187.659207 942.664474,188.451316 C943.309214,189.243425 944.101311,189.878945 945.040789,190.357895 C945.980268,190.836844 947.039468,191.076316 948.218421,191.076316 C949.434217,191.076316 950.530258,190.846055 951.506579,190.385526 C952.4829,189.924998 953.311839,189.307899 953.993421,188.534211 C954.675003,187.760522 955.199998,186.86711 955.568421,185.853947 C955.936844,184.840784 956.121053,183.781584 956.121053,182.676316 C956.121053,181.534205 955.936844,180.447374 955.568421,179.415789 C955.199998,178.384205 954.675003,177.481583 953.993421,176.707895 C953.311839,175.934207 952.49211,175.326318 951.534211,174.884211 C950.576311,174.442103 949.48948,174.221053 948.273684,174.221053 Z" id="login-logo"></path>
        </g>
    </g>
</svg>