<svg width="158" height="185" viewBox="0 0 158 185" fill="none" xmlns="http://www.w3.org/2000/svg">
<path d="M134.882 49.0078L131.116 48.0117L129.742 44.376C128.885 42.1148 127.69 39.9832 126.186 38.0607C124.701 36.1554 122.942 34.4804 120.966 33.0902C116.872 30.2115 112.051 28.6875 107.021 28.6875C101.991 28.6875 97.1696 30.2115 93.0756 33.0902C91.0999 34.4803 89.341 36.1553 87.8561 38.0607C86.3573 39.9733 85.1582 42.1027 84.3001 44.376L82.9155 48.0217L79.1403 49.0078C76.5337 49.711 74.2241 51.2379 72.5561 53.3607C70.8572 55.5291 69.9379 58.2063 69.9463 60.9609C69.9463 64.258 71.2313 67.3658 73.5622 69.6967C75.893 72.0275 78.9909 73.3125 82.2879 73.3125H131.714C135.011 73.3125 138.109 72.0275 140.44 69.6967C141.59 68.5517 142.501 67.1901 143.122 65.6907C143.743 64.1913 144.06 62.5837 144.056 60.9609C144.056 55.3629 140.29 50.4521 134.882 49.0078Z" fill="#E6F7FF"/>
<path d="M136.823 41.7064C132.261 29.6736 120.637 21.1172 107.02 21.1172C93.4033 21.1172 81.7789 29.6637 77.2168 41.6965C68.6803 43.9377 62.375 51.7072 62.375 60.9609C62.375 71.9678 71.29 80.8828 82.2869 80.8828H131.713C142.71 80.8828 151.625 71.9678 151.625 60.9609C151.625 51.7271 145.34 43.9576 136.823 41.7064ZM140.439 69.6967C139.296 70.8464 137.936 71.758 136.438 72.3787C134.94 72.9994 133.334 73.3168 131.713 73.3125H82.2869C78.9898 73.3125 75.892 72.0275 73.5611 69.6967C72.4112 68.5517 71.4996 67.1901 70.879 65.6907C70.2583 64.1913 69.941 62.5837 69.9453 60.9609C69.9453 58.1719 70.8518 55.5522 72.5551 53.3607C74.2231 51.2379 76.5326 49.711 79.1393 49.0078L82.9145 48.0217L84.299 44.376C85.1557 42.1049 86.351 39.9832 87.8551 38.0607C89.34 36.1553 91.0989 34.4803 93.0746 33.0902C97.1686 30.2115 101.99 28.6875 107.02 28.6875C112.05 28.6875 116.871 30.2115 120.965 33.0902C122.947 34.4848 124.701 36.1582 126.185 38.0607C127.689 39.9832 128.884 42.1148 129.741 44.376L131.115 48.0117L134.881 49.0078C140.289 50.4521 144.055 55.3629 144.055 60.9609C144.055 64.258 142.77 67.3658 140.439 69.6967Z" fill="#1890FF"/>
<path d="M37.8232 126.812C36.4647 128.922 35.3662 131.191 34.5713 133.547H46.8275V117.75C43.2432 120.091 40.1791 123.17 37.8232 126.812ZM101.171 117.75V133.547H113.428C112.633 131.191 111.534 128.922 110.176 126.812C107.846 123.191 104.777 120.103 101.171 117.75ZM91.9213 83.0767L73.9994 61.8306L56.0775 83.0767V133.547H91.9213V83.0767ZM73.9994 101.75C72.184 101.713 70.4554 100.966 69.1846 99.6689C67.9138 98.3719 67.2021 96.6284 67.2021 94.8126C67.2021 92.9968 67.9138 91.2534 69.1846 89.9564C70.4554 88.6594 72.184 87.9122 73.9994 87.8751C75.8148 87.9122 77.5434 88.6594 78.8142 89.9564C80.085 91.2534 80.7967 92.9968 80.7967 94.8126C80.7967 96.6284 80.085 98.3719 78.8142 99.6689C77.5434 100.966 75.8148 101.713 73.9994 101.75Z" fill="#FFF9F2"/>
<path d="M124.875 143.375C124.875 127.245 115.423 113.312 101.75 106.823V82.8598C101.75 80.6773 100.984 78.5672 99.5676 76.9051L77.541 50.7883C76.616 49.6898 75.3008 49.1406 74 49.1406C72.6992 49.1406 71.384 49.6898 70.459 50.7883L48.4324 76.9051C47.0256 78.5706 46.2527 80.6796 46.25 82.8598V106.823C32.5773 113.312 23.125 127.245 23.125 143.375H45.7441C45.4117 144.416 45.2383 145.543 45.2383 146.815C45.2383 150.009 46.3367 153.131 48.3312 155.602C49.9593 157.624 52.1154 159.155 54.5605 160.025C57.8992 167.83 65.4871 172.859 74 172.859C78.2059 172.859 82.2816 171.616 85.7648 169.275C89.1758 166.991 91.8207 163.797 93.425 160.025C95.8691 159.16 98.0254 157.634 99.6543 155.617C101.651 153.123 102.742 150.024 102.747 146.829C102.747 145.615 102.588 144.459 102.299 143.389L124.875 143.375ZM46.8281 133.547H34.5719C35.3668 131.191 36.4652 128.922 37.8238 126.812C40.1797 123.17 43.2438 120.091 46.8281 117.75V133.547ZM56.0781 83.0766L74 61.8305L91.9219 83.0766V133.547H56.0781V83.0766ZM90.7801 150.341C90.0285 150.775 89.1613 150.948 88.3086 150.833L85.4902 150.486L85.0855 153.29C84.3051 158.768 79.5355 162.901 74 162.901C68.4645 162.901 63.6949 158.768 62.9145 153.29L62.5098 150.471L59.6914 150.833C58.8346 150.935 57.9677 150.758 57.2199 150.327C55.9625 149.604 55.182 148.26 55.182 146.8C55.182 145.268 56.0348 143.996 57.2922 143.361H90.7223C91.9941 144.011 92.8324 145.283 92.8324 146.8C92.818 148.275 92.0375 149.633 90.7801 150.341ZM101.172 133.547V117.75C104.778 120.103 107.846 123.191 110.176 126.812C111.535 128.922 112.633 131.191 113.428 133.547H101.172Z" fill="#FFC178"/>
<path d="M67.0625 94.8125C67.0625 96.6524 67.7934 98.417 69.0944 99.7181C70.3955 101.019 72.1601 101.75 74 101.75C75.8399 101.75 77.6045 101.019 78.9056 99.7181C80.2066 98.417 80.9375 96.6524 80.9375 94.8125C80.9375 92.9726 80.2066 91.208 78.9056 89.9069C77.6045 88.6059 75.8399 87.875 74 87.875C72.1601 87.875 70.3955 88.6059 69.0944 89.9069C67.7934 91.208 67.0625 92.9726 67.0625 94.8125Z" fill="#FFC178"/>
</svg>
