<svg xmlns="http://www.w3.org/2000/svg" viewBox="0 0 45 45"><defs><style>.cls-1{fill:#e6e7e8;}</style></defs><g id="Layer_2" data-name="Layer 2"><g id="Layer_1-2" data-name="Layer 1"><path class="cls-1" d="M22.5,0A22.5,22.5,0,1,0,45,22.5,22.5,22.5,0,0,0,22.5,0ZM8.78,22.05a3.34,3.34,0,0,1,0-4.73l8.54-8.54a3.34,3.34,0,1,1,4.73,4.73l-8.54,8.54A3.36,3.36,0,0,1,8.78,22.05Zm7.09,7.08a3.34,3.34,0,0,1,0-4.73l1.9-1.9a3.34,3.34,0,0,1,4.73,4.73l-1.9,1.9A3.34,3.34,0,0,1,15.87,29.13Zm20.35-1.45-8.54,8.54A3.34,3.34,0,0,1,23,31.49L31.49,23a3.34,3.34,0,0,1,4.73,4.73Z"/></g></g></svg>